<svg xmlns="http://www.w3.org/2000/svg" viewBox="0 0 256 256" role="img" aria-label="ClipVault icon">
  <defs>
    <linearGradient id="bg" x1="44" y1="18" x2="214" y2="232" gradientUnits="userSpaceOnUse">
      <stop offset="0" stop-color="#22c7b4"/>
      <stop offset="0.48" stop-color="#0f8f83"/>
      <stop offset="1" stop-color="#07524e"/>
    </linearGradient>
    <linearGradient id="paper" x1="82" y1="49" x2="175" y2="214" gradientUnits="userSpaceOnUse">
      <stop offset="0" stop-color="#ffffff"/>
      <stop offset="1" stop-color="#dffbf6"/>
    </linearGradient>
    <linearGradient id="vault" x1="90" y1="92" x2="169" y2="178" gradientUnits="userSpaceOnUse">
      <stop offset="0" stop-color="#0f8f83"/>
      <stop offset="1" stop-color="#075e59"/>
    </linearGradient>
    <filter id="soft-shadow" x="-24%" y="-20%" width="148%" height="154%">
      <feDropShadow dx="0" dy="18" stdDeviation="16" flood-color="#032d2a" flood-opacity="0.28"/>
    </filter>
  </defs>

  <rect width="256" height="256" rx="58" fill="url(#bg)"/>
  <path d="M31 72c30-33 69-45 117-28 28 10 51 8 78-9v70c-32 18-64 20-97 6-36-15-68-8-98 22Z" fill="#ccfff5" opacity="0.18"/>
  <path d="M38 205c35-25 70-27 107-7 31 17 54 17 75-1v29c-25 18-55 20-90 5-32-13-60-9-92 15Z" fill="#ffffff" opacity="0.12"/>

  <g filter="url(#soft-shadow)">
    <rect x="63" y="50" width="130" height="165" rx="34" fill="url(#paper)"/>
    <path d="M99 51c0-14 11-25 25-25h9c14 0 25 11 25 25v20H99Z" fill="#eafff9"/>
    <rect x="111" y="44" width="35" height="10" rx="5" fill="#0f766e"/>
    <rect x="82" y="76" width="92" height="9" rx="4.5" fill="#0f766e" opacity="0.16"/>

    <rect x="86" y="96" width="84" height="82" rx="28" fill="url(#vault)"/>
    <circle cx="128" cy="137" r="25" fill="none" stroke="#ecfff9" stroke-width="10"/>
    <circle cx="128" cy="137" r="8" fill="#f97316"/>
    <path d="M128 146v18" fill="none" stroke="#f97316" stroke-width="8" stroke-linecap="round"/>
    <path d="M128 107v11M158 137h-11M128 167v-11M98 137h11" stroke="#baf7ed" stroke-width="6" stroke-linecap="round"/>

    <rect x="83" y="190" width="58" height="10" rx="5" fill="#0f766e" opacity="0.24"/>
    <rect x="149" y="190" width="24" height="10" rx="5" fill="#f97316"/>
  </g>

  <circle cx="50" cy="59" r="6" fill="#f97316"/>
  <circle cx="209" cy="188" r="9" fill="#b7fff2" opacity="0.66"/>
</svg>
