<svg xmlns="http://www.w3.org/2000/svg" viewBox="0 0 256 256" role="img" aria-label="ClipVault icon">
  <defs>
    <linearGradient id="bg" x1="42" y1="24" x2="214" y2="232" gradientUnits="userSpaceOnUse">
      <stop offset="0" stop-color="#22c7b4"/>
      <stop offset="0.52" stop-color="#0f8f83"/>
      <stop offset="1" stop-color="#0b5f58"/>
    </linearGradient>
    <linearGradient id="sheet" x1="76" y1="58" x2="180" y2="214" gradientUnits="userSpaceOnUse">
      <stop offset="0" stop-color="#ffffff"/>
      <stop offset="1" stop-color="#dffbf6"/>
    </linearGradient>
    <filter id="shadow" x="-20%" y="-20%" width="140%" height="150%">
      <feDropShadow dx="0" dy="18" stdDeviation="14" flood-color="#073c37" flood-opacity="0.28"/>
    </filter>
  </defs>

  <rect width="256" height="256" rx="56" fill="url(#bg)"/>
  <path d="M40 72C62 34 111 22 154 41c27 12 46 9 64-6v74c-26 18-56 22-88 12-38-12-67-2-90 29Z" fill="#bff4ea" opacity="0.22"/>
  <path d="M42 192c36-28 70-31 104-8 28 18 48 20 68 4v32c-20 18-47 22-81 7-34-15-60-11-91 13Z" fill="#ffffff" opacity="0.12"/>

  <g filter="url(#shadow)">
    <rect x="68" y="60" width="120" height="154" rx="26" fill="url(#sheet)"/>
    <rect x="88" y="84" width="80" height="15" rx="7.5" fill="#0f766e" opacity="0.88"/>
    <rect x="88" y="116" width="56" height="12" rx="6" fill="#0f766e" opacity="0.28"/>
    <rect x="88" y="140" width="80" height="12" rx="6" fill="#0f766e" opacity="0.2"/>
    <rect x="88" y="164" width="62" height="12" rx="6" fill="#0f766e" opacity="0.2"/>
  </g>

  <path d="M108 52h40c12 0 22 10 22 22v16H86V74c0-12 10-22 22-22Z" fill="#073c37" opacity="0.22"/>
  <path d="M110 42h36c10 0 18 8 18 18v18H92V60c0-10 8-18 18-18Z" fill="#ecfff9"/>
  <rect x="110" y="56" width="36" height="10" rx="5" fill="#0f8f83"/>

  <path d="M168 95 131 148h28l-13 54 45-68h-29l21-39Z" fill="#f97316"/>
  <path d="M168 95 131 148h28l-13 54 45-68h-29l21-39Z" fill="#fff7ed" opacity="0.26"/>
  <circle cx="56" cy="60" r="8" fill="#f97316"/>
  <circle cx="211" cy="188" r="10" fill="#9ff3e7" opacity="0.72"/>
</svg>
